<svg width="35" height="35" viewBox="0 0 35 35" fill="none" xmlns="http://www.w3.org/2000/svg">
<path d="M0.5 0.5H34.5V34.5H0.5V0.5Z" stroke="#BBE2EA"/>
<path d="M26.3438 7.84375H7.65625C7.20684 7.84375 6.84375 8.20684 6.84375 8.65625V27.3438C6.84375 27.7932 7.20684 28.1562 7.65625 28.1562H26.3438C26.7932 28.1562 27.1562 27.7932 27.1562 27.3438V8.65625C27.1562 8.20684 26.7932 7.84375 26.3438 7.84375ZM23.9977 13.7725H22.3752C21.1031 13.7725 20.8568 14.3768 20.8568 15.2654V17.223H23.8936L23.4975 20.2877H20.8568V28.1562H17.6906V20.2902H15.0424V17.223H17.6906V14.9633C17.6906 12.3404 19.2928 10.9109 21.6338 10.9109C22.7561 10.9109 23.7184 10.9947 24.0002 11.0328V13.7725H23.9977Z" fill="#DBF2F6"/>
</svg>
