<svg width="35" height="35" viewBox="0 0 35 35" fill="none" xmlns="http://www.w3.org/2000/svg">
<path d="M0.5 0.5H34.5V34.5H0.5V0.5Z" stroke="#BBE2EA"/>
<path d="M17.0993 14.6154C15.2214 14.6154 13.6889 16.1363 13.6889 18C13.6889 19.8636 15.2214 21.3845 17.0993 21.3845C18.9772 21.3845 20.5097 19.8636 20.5097 18C20.5097 16.1363 18.9772 14.6154 17.0993 14.6154ZM27.328 18C27.328 16.5984 27.3408 15.2095 27.2615 13.8105C27.1821 12.1855 26.8086 10.7433 25.6113 9.55505C24.4113 8.36423 22.9607 7.99607 21.3233 7.91736C19.911 7.83865 18.5116 7.85134 17.1019 7.85134C15.6896 7.85134 14.2901 7.83865 12.8804 7.91736C11.243 7.99607 9.78983 8.36677 8.59248 9.55505C7.39257 10.7459 7.02159 12.1855 6.94228 13.8105C6.86297 15.2121 6.87576 16.601 6.87576 18C6.87576 19.399 6.86297 20.7904 6.94228 22.1894C7.02159 23.8144 7.39513 25.2566 8.59248 26.4449C9.79239 27.6357 11.243 28.0039 12.8804 28.0826C14.2927 28.1613 15.6922 28.1486 17.1019 28.1486C18.5141 28.1486 19.9136 28.1613 21.3233 28.0826C22.9607 28.0039 24.4139 27.6332 25.6113 26.4449C26.8112 25.2541 27.1821 23.8144 27.2615 22.1894C27.3433 20.7904 27.328 19.4015 27.328 18ZM17.0993 23.2076C14.1955 23.2076 11.8519 20.8818 11.8519 18C11.8519 15.1181 14.1955 12.7924 17.0993 12.7924C20.0031 12.7924 22.3467 15.1181 22.3467 18C22.3467 20.8818 20.0031 23.2076 17.0993 23.2076ZM22.5616 13.7953C21.8836 13.7953 21.3361 13.2519 21.3361 12.5791C21.3361 11.9062 21.8836 11.3629 22.5616 11.3629C23.2396 11.3629 23.7871 11.9062 23.7871 12.5791C23.7873 12.7388 23.7557 12.8971 23.6942 13.0447C23.6327 13.1924 23.5424 13.3265 23.4286 13.4395C23.3148 13.5525 23.1796 13.6421 23.0308 13.7031C22.882 13.7642 22.7226 13.7955 22.5616 13.7953Z" fill="#DBF2F6"/>
</svg>
