<svg width="52" height="61" viewBox="0 0 52 61" fill="none" xmlns="http://www.w3.org/2000/svg">
<g clip-path="url(#clip0_179_128)">
<path d="M0.00012207 -0.00012207V60.9804H52.0001V-0.00012207H41.6079V11.3434H10.4702V-0.00012207H0.00012207ZM24.7156 49.5978C21.965 47.618 19.9569 44.7665 19.0136 41.5012L24.7156 44.7671V49.5978ZM24.7156 41.7748L18.3131 38.0982C18.2722 37.4469 18.2722 36.7937 18.3131 36.1424C18.3145 34.7062 18.4841 33.2751 18.8188 31.8788L24.813 35.5752L24.7156 41.7748ZM24.7156 32.5437L19.5002 29.3558C20.5727 26.6957 22.3829 24.4012 24.7156 22.7453V32.5437ZM24.4042 16.8976C24.9086 16.6681 25.4561 16.5493 26.0098 16.5493C26.5636 16.5493 27.1108 16.6681 27.6153 16.8976C31.1484 18.6718 34.1 21.4289 36.1183 24.8407C38.1367 28.2526 39.1368 32.1756 39 36.1424C39.1368 40.1093 38.1367 44.0321 36.1183 47.4439C34.1 50.8557 31.1484 53.6128 27.6153 55.387H27.3041V52.5314C30.165 50.8692 32.5231 48.4576 34.1271 45.554C35.7311 42.6504 36.5208 39.3638 36.4117 36.0446C36.5358 32.5819 35.6731 29.1557 33.9252 26.1691C32.1772 23.1825 29.6167 20.7597 26.5451 19.186C26.3771 19.1086 26.1946 19.0685 26.0098 19.0685C25.8251 19.0685 25.6425 19.1086 25.4746 19.186C22.3999 20.7559 19.8368 23.1778 18.0883 26.1653C16.3398 29.1528 15.4791 32.581 15.6079 36.0446C15.4946 39.3645 16.2824 42.653 17.8869 45.5574C19.4913 48.4618 21.8518 50.8724 24.7156 52.5314V55.387H24.4042C20.8689 53.6136 17.9149 50.8571 15.8933 47.4456C13.8716 44.034 12.8673 40.1109 13 36.1424C12.8673 32.1739 13.8716 28.2506 15.8933 24.8391C17.9149 21.4275 20.8689 18.671 24.4042 16.8976ZM33.298 31.8788C33.6327 33.2751 33.8025 34.7062 33.804 36.1424C33.804 36.7878 33.804 37.4332 33.804 38.0982L27.4012 41.7748V35.6143L33.298 31.8788ZM27.3041 32.5045V22.7257C29.6365 24.3771 31.4415 26.6736 32.5 29.3362L27.3041 32.5045ZM33.006 41.4816C32.0479 44.7396 30.0429 47.5869 27.3041 49.5785V44.7476L33.006 41.4816Z" fill="#DBF2F6"/>
</g>
<defs>
<clipPath id="clip0_179_128">
<rect width="52" height="61" fill="white"/>
</clipPath>
</defs>
</svg>
