<svg width="87" height="61" viewBox="0 0 87 61" fill="none" xmlns="http://www.w3.org/2000/svg">
<g clip-path="url(#clip0_179_114)">
<path fill-rule="evenodd" clip-rule="evenodd" d="M45.2906 44.9023C37.9781 20.2619 20.1363 4.65764 0 0V12.2345C3.30244 43.9579 33.7964 44.4301 45.2906 56.4713C46.5818 57.7843 47.6277 59.3181 48.3787 61.0001C47.8851 55.545 46.8506 50.1525 45.2906 44.9023ZM42.3957 49.3881C39.713 40.3502 34.7538 32.1545 27.9942 25.588C21.2346 19.0215 12.9016 14.3048 3.7957 11.891C3.56356 9.56633 3.48479 7.22885 3.55985 4.8938C24.2752 11.3329 37.5278 29.0191 42.653 49.4955L42.3957 49.3881Z" fill="#DBF2F6"/>
<path fill-rule="evenodd" clip-rule="evenodd" d="M87.0003 0.0429077C70.9385 3.75614 56.6779 16.205 50.8451 35.8658C49.6181 40.0709 48.7923 44.3829 48.3789 48.7441C48.9837 47.4068 49.8184 46.1865 50.8451 45.1383C60.0233 35.5654 84.3627 35.1363 87.0003 9.83051V0.0429077ZM84.0195 9.52998C76.7444 11.4505 70.0848 15.2113 64.6808 20.451C59.2768 25.6908 55.3098 32.2333 53.161 39.4503H53.011C57.1069 23.1164 67.6788 9.10068 84.2124 3.86352C84.271 5.74023 84.2066 7.61875 84.0195 9.48701V9.52998Z" fill="#DBF2F6"/>
</g>
<defs>
<clipPath id="clip0_179_114">
<rect width="87" height="61" fill="white"/>
</clipPath>
</defs>
</svg>
