<svg width="94" height="44" viewBox="0 0 94 44" fill="none" xmlns="http://www.w3.org/2000/svg">
<g clip-path="url(#clip0_179_123)">
<path d="M50.6045 32.2507C49.1263 32.5304 47.6279 32.7503 46.1294 32.8902C47.6401 32.8514 49.1476 32.7313 50.6451 32.5304C54.2021 32.0617 57.6938 31.1969 61.0536 29.9527C67.8151 27.4022 74.0569 23.6729 79.4809 18.9427C82.2133 16.5962 84.7777 14.0659 87.1557 11.3697C88.3504 10.011 89.5248 8.61231 90.5981 7.1936C91.1651 6.47425 91.6917 5.73475 92.1979 5.01541C92.7041 4.29606 93.2509 3.51672 93.7369 2.71745C93.9841 2.31139 94.0588 1.82558 93.945 1.3654C93.8313 0.905226 93.5382 0.507882 93.1293 0.259719C92.8467 0.0953729 92.5259 0.00588196 92.1979 -5.42704e-05C91.8851 -0.000901106 91.5774 0.0777732 91.3043 0.228254C91.0312 0.378734 90.802 0.596064 90.6386 0.859272C90.3349 1.45873 89.9096 2.178 89.3831 3.03722C88.8566 3.89644 88.472 4.47607 87.986 5.19542C87.0343 6.61413 85.961 8.03281 84.9283 9.41155C82.8017 12.1546 80.4805 14.7455 77.9824 17.1645C73.007 22.0851 67.1771 26.0848 60.77 28.9736C57.5227 30.3894 54.1272 31.4483 50.6451 32.1309L50.6045 32.2507Z" fill="#DBF2F6"/>
<path d="M61.3573 30.752C57.9365 32.0097 54.3844 32.8877 50.7666 33.3698C48.6983 33.6328 46.615 33.7662 44.5295 33.7693C42.9905 33.7693 41.4515 33.7693 39.9125 33.5495C32.7776 32.8184 25.8426 30.7858 19.4601 27.555C25.9424 30.3981 32.9069 32.018 39.9936 32.3307H41.5731C44.5512 32.3369 47.5225 32.0489 50.4426 31.4713C53.8558 30.8036 57.1836 29.765 60.3651 28.3743C66.5255 25.5964 72.1452 21.7754 76.9699 17.0845C74.7222 15.7457 69.3357 13.8274 60.77 17.9836C54.8482 20.6156 48.4984 22.1855 42.0186 22.6195C42.8244 23.1672 43.6705 23.6547 44.5498 24.0782C45.6191 24.5996 46.7384 25.0146 47.8911 25.317C49.0605 25.6309 50.2639 25.8053 51.4753 25.8366C50.2596 26.1032 49.0075 26.1706 47.7695 26.0363C46.5084 25.8859 45.2709 25.584 44.0841 25.1373C42.5518 24.5461 41.1077 23.7529 39.7911 22.7793C37.5045 22.8988 35.213 22.8988 32.9264 22.7793C33.3314 23.1789 33.7566 23.5785 34.2021 23.9382C35.1255 24.7275 36.1461 25.3989 37.2396 25.9363C36.0173 25.685 34.8512 25.2181 33.7972 24.5577C32.9216 24.0329 32.1007 23.4238 31.3468 22.7393C27.1751 22.5893 23.0625 21.7169 19.1969 20.1618C9.96294 15.8857 3.9489 9.77125 -0.101074 16.1654C-0.101074 16.1654 7.99868 32.5704 21.9711 39.5441C22.9903 38.9404 23.9408 38.2301 24.8061 37.4259C24.5744 38.0105 24.2755 38.5671 23.9153 39.0845C23.6697 39.4308 23.4061 39.7643 23.1255 40.0836C26.0639 41.394 29.1405 42.3791 32.2988 43.0209C33.9169 42.7682 35.5045 42.3531 37.0372 41.782C38.1236 41.361 39.1732 40.8531 40.1757 40.2634C41.2185 39.6514 42.1898 38.9278 43.0716 38.1055C42.855 38.693 42.5622 39.2504 42.2007 39.7639C41.8357 40.2874 41.4295 40.7818 40.9858 41.2425C40.0809 42.163 39.052 42.9565 37.928 43.6005L37.584 43.7802C43.251 44.2469 48.9571 43.7467 54.452 42.3016C55.5296 41.6439 56.5521 40.9023 57.5098 40.0836C58.3904 39.3209 59.2032 38.4852 59.9397 37.5859C60.7196 36.6598 61.3983 35.6552 61.9647 34.5886C61.9636 35.2157 61.882 35.84 61.7217 36.4468C61.5611 37.0552 61.3513 37.65 61.094 38.2252C60.7203 39.0796 60.2516 39.8907 59.6967 40.6432C64.638 38.8284 69.1617 36.0563 73.001 32.4904V31.6514C72.9674 30.4521 72.8045 29.2597 72.515 28.0945C72.9263 28.575 73.2734 29.1056 73.5478 29.6732C73.8053 30.1818 74.0218 30.7095 74.1957 31.2516C75.6195 29.8595 76.7512 28.2041 77.5261 26.38C78.3009 24.556 78.7036 22.5992 78.7114 20.6213C73.5138 24.8792 67.6357 28.2555 61.3168 30.6123L61.3573 30.752Z" fill="#DBF2F6"/>
</g>
<defs>
<clipPath id="clip0_179_123">
<rect width="94" height="44" fill="white"/>
</clipPath>
</defs>
</svg>
