<svg width="21" height="23" viewBox="0 0 21 23" fill="none" xmlns="http://www.w3.org/2000/svg">
<path d="M20.9925 22.4271L19.2653 6.41594C19.2366 6.15816 19.0063 5.95766 18.7472 5.95766H15.5519V4.98381C15.5519 2.23412 13.3066 0 10.5432 0C7.77972 0 5.53441 2.23412 5.53441 4.98381V5.95766H2.2528C1.99372 5.95766 1.76344 6.15816 1.73465 6.41594L0.0074881 22.4271C-0.0212979 22.5704 0.0362741 22.7136 0.122632 22.8281C0.20899 22.9427 0.352921 23 0.496851 23H20.5031C20.6471 23 20.791 22.9427 20.8774 22.8281C20.9637 22.7136 21.0213 22.5704 20.9925 22.4271ZM15.0338 8.85056C15.2929 8.85056 15.4944 9.05106 15.4944 9.30884C15.4944 9.56662 15.2929 9.76712 15.0338 9.76712C14.7747 9.76712 14.5732 9.56662 14.5732 9.30884C14.5732 9.05106 14.7747 8.85056 15.0338 8.85056ZM6.57071 4.98381C6.57071 2.80697 8.35544 1.03113 10.5432 1.03113C12.7309 1.03113 14.5157 2.80697 14.5157 4.98381V5.95766H6.57071V4.98381ZM6.05256 8.85056C6.31163 8.85056 6.51313 9.05106 6.51313 9.30884C6.51313 9.56662 6.31163 9.76712 6.05256 9.76712C5.79348 9.76712 5.59198 9.56662 5.59198 9.30884C5.59198 9.05106 5.79348 8.85056 6.05256 8.85056ZM1.10136 21.9402L2.71338 6.96015H5.53441V7.90535C4.95869 8.10585 4.55568 8.65006 4.55568 9.2802C4.55568 10.0822 5.21776 10.741 6.02377 10.741C6.82978 10.741 7.49186 10.0822 7.49186 9.2802C7.49186 8.65006 7.08885 8.10585 6.51313 7.90535V6.96015H14.4581V7.90535C13.8824 8.10585 13.4794 8.65006 13.4794 9.2802C13.4794 10.0822 14.1414 10.741 14.9474 10.741C15.7535 10.741 16.4155 10.0822 16.4155 9.2802C16.4155 8.65006 16.0125 8.10585 15.4368 7.90535V6.96015H18.373L19.985 21.9402H1.10136Z" fill="#666666"/>
</svg>
