<svg width="21" height="22" viewBox="0 0 21 22" fill="none" xmlns="http://www.w3.org/2000/svg">
<path d="M15.2346 12.8251H5.76529C2.58632 12.8251 0 15.4339 0 18.6405V22H21V18.6405C20.9999 15.4339 18.4136 12.8251 15.2346 12.8251ZM19.7487 20.738H1.25112V18.6406C1.25112 16.1299 3.27615 14.0872 5.7652 14.0872H15.2345C17.7236 14.0872 19.7486 16.1299 19.7486 18.6406L19.7487 20.738Z" fill="#666666"/>
<path d="M10.4995 12.2276C13.8416 12.2276 16.5606 9.48491 16.5606 6.11379C16.5606 2.74268 13.8417 0 10.4995 0C7.15742 0 4.43848 2.7426 4.43848 6.11379C4.43848 9.48499 7.1575 12.2276 10.4995 12.2276ZM10.4995 1.26209C13.1518 1.26209 15.3094 3.43851 15.3094 6.11379C15.3094 8.78908 13.1518 10.9655 10.4995 10.9655C7.84733 10.9655 5.68968 8.789 5.68968 6.11379C5.68968 3.43859 7.84733 1.26209 10.4995 1.26209Z" fill="#666666"/>
</svg>
