<svg width="59" height="59" viewBox="0 0 59 59" fill="none" xmlns="http://www.w3.org/2000/svg">
<g clip-path="url(#clip0_179_110)">
<path d="M13.5208 25.8125H1.22917C0.903171 25.8125 0.590528 25.942 0.360015 26.1725C0.129501 26.403 0 26.7157 0 27.0417L0 56.5417C0 56.8677 0.129501 57.1803 0.360015 57.4108C0.590528 57.6413 0.903171 57.7709 1.22917 57.7709H13.5208C13.8468 57.7709 14.1595 57.6413 14.39 57.4108C14.6205 57.1803 14.75 56.8677 14.75 56.5417V27.0417C14.75 26.7157 14.6205 26.403 14.39 26.1725C14.1595 25.942 13.8468 25.8125 13.5208 25.8125ZM59 27.0417C59 23.6541 56.2417 20.8959 52.8542 20.8959H37.379C38.1287 18.6121 39.3333 14.4255 39.3333 11.0625C39.3333 5.7304 34.8026 1.22919 31.9583 1.22919C29.4041 1.22919 27.58 2.66485 27.5014 2.72631C27.3581 2.84225 27.2424 2.98869 27.1629 3.15498C27.0834 3.32126 27.042 3.5032 27.0417 3.68752V12.0213L19.9617 27.3637L17.8893 28.3987C17.6851 28.5014 17.5133 28.6587 17.3931 28.8531C17.2729 29.0475 17.209 29.2714 17.2083 29.5V51.625C17.2083 51.952 17.3386 52.2642 17.5672 52.4953C19.4085 54.3341 23.5385 55.3125 25.8125 55.3125H48.5521C49.4928 55.3109 50.4177 55.0696 51.2393 54.6114C52.061 54.1532 52.7523 53.4931 53.248 52.6936C53.7437 51.894 54.0275 50.9813 54.0726 50.0416C54.1177 49.102 53.9225 48.1663 53.5056 47.3229C54.8078 46.669 55.7976 45.5256 56.2584 44.1433C56.7192 42.761 56.6133 41.2524 55.964 39.9479C56.8758 39.4901 57.6426 38.788 58.1787 37.9198C58.7148 37.0517 58.9991 36.0516 59 35.0313C59 33.5563 58.4125 32.1771 57.4021 31.1594C58.4223 30.0482 59 28.5929 59 27.0417Z" fill="#DBF2F6"/>
</g>
<defs>
<clipPath id="clip0_179_110">
<rect width="59" height="59" fill="white"/>
</clipPath>
</defs>
</svg>
